<svg width="120" height="120" viewBox="0 0 120 120" fill="none" xmlns="http://www.w3.org/2000/svg">
<path fill-rule="evenodd" clip-rule="evenodd" d="M73.8365 33.0594L100.341 68.722C103.081 72.4335 104.689 76.8975 104.959 81.5495C105.23 86.201 104.152 90.8305 101.862 94.8515L101.84 94.89C100.129 97.8295 97.362 99.959 94.137 100.82C90.9125 101.68 87.488 101.202 84.603 99.489L21.3456 61.938C18.4307 60.2075 16.3037 57.3575 15.4325 54.015C14.5613 50.672 15.0174 47.1103 16.7003 44.1132L30.0718 20.3004C31.439 17.8656 33.691 16.0889 36.3322 15.3613C38.9692 14.6348 41.7786 15.0133 44.1442 16.4134C45.3311 17.1106 46.3686 18.0474 47.1944 19.1674C47.9551 20.199 48.5216 21.3665 48.866 22.6096L49.2666 23.6638L49.3333 23.9235C49.8322 25.8651 50.6985 27.6866 51.8825 29.2837C53.0655 30.8797 54.543 32.2204 56.2305 33.2292C57.937 34.2439 59.8215 34.9025 61.776 35.1673C63.7315 35.4322 65.719 35.2975 67.6245 34.7709L73.8365 33.0594ZM44.1442 16.4134C44.1481 16.4157 44.1519 16.418 44.1558 16.4203L41.8706 20.49L44.1327 16.4066C44.1365 16.4089 44.1404 16.4112 44.1442 16.4134ZM39.9102 24.8453C39.8285 24.7346 39.7259 24.6421 39.6084 24.5733L39.5853 24.5597C39.3168 24.4002 38.9976 24.357 38.6981 24.4396C38.3985 24.5221 38.1431 24.7236 37.9881 24.9997L24.6166 48.8124C24.1458 49.6508 24.0183 50.647 24.262 51.5825C24.5056 52.5175 25.1007 53.3145 25.9161 53.7985L89.1735 91.3495C89.9805 91.829 90.939 91.963 91.841 91.722C92.7375 91.483 93.507 90.8935 93.986 90.08C95.3535 87.6695 95.9965 84.8965 95.8345 82.1105C95.672 79.3185 94.7075 76.638 93.0635 74.4095C93.062 74.408 93.061 74.406 93.06 74.4045L70.29 43.7666L69.9975 43.8472C69.997 43.8473 69.998 43.8471 69.9975 43.8472C66.931 44.6946 63.73 44.9117 60.582 44.4853C57.433 44.0588 54.397 42.9973 51.6485 41.3617L51.641 41.3574C48.9136 39.7277 46.5252 37.561 44.6128 34.9814C42.7559 32.4768 41.383 29.6305 40.5673 26.5967L40.1544 25.51L40.0834 25.2175C40.0507 25.0827 39.9918 24.9561 39.9102 24.8453Z" fill="#6B7173"></path>
<path fill-rule="evenodd" clip-rule="evenodd" d="M68.4205 53.1065L78.3375 46.3741L83.374 54.217L73.457 60.9495L68.4205 53.1065Z" fill="#6B7173"></path>
<path fill-rule="evenodd" clip-rule="evenodd" d="M80.443 65.09L88.2975 59.758L93.334 67.601L85.4795 72.933L80.443 65.09Z" fill="#6B7173"></path>
<path fill-rule="evenodd" clip-rule="evenodd" d="M90.845 97.769L86.785 105L78.8685 100.3L82.929 93.07L90.845 97.769Z" fill="#6B7173"></path>
<path fill-rule="evenodd" clip-rule="evenodd" d="M76.781 89.42L72.721 96.6505L64.8045 91.9515L68.865 84.7205L76.781 89.42Z" fill="#6B7173"></path>
<path fill-rule="evenodd" clip-rule="evenodd" d="M62.715 81.07L58.6545 88.3005L50.7385 83.6015L54.7985 76.3705L62.715 81.07Z" fill="#6B7173"></path>
<path fill-rule="evenodd" clip-rule="evenodd" d="M41.6546 68.568L37.5943 75.799L29.678 71.0995L33.7384 63.8685L41.6546 68.568Z" fill="#6B7173"></path>
<path fill-rule="evenodd" clip-rule="evenodd" d="M27.5885 60.218L23.5281 67.449L15.6119 62.7495L19.6722 55.5185L27.5885 60.218Z" fill="#6B7173"></path>
<path fill-rule="evenodd" clip-rule="evenodd" d="M29.4646 47.4763L22.4319 43.3016L27.0023 35.1622L34.035 39.337C38.8152 42.1746 42.3032 46.8483 43.7318 52.33C45.1604 57.812 44.4145 63.653 41.6546 68.568L33.7384 63.8685C35.286 61.1125 35.7034 57.837 34.9023 54.7625C34.1012 51.6885 32.1452 49.0676 29.4646 47.4763Z" fill="#6B7173"></path>
</svg>
