
<svg width="64" height="64" viewBox="0 0 64 64" xmlns="http://www.w3.org/2000/svg">
  <defs>
    <clipPath id="circleView">
      <circle cx="32" cy="32" r="32"/>
    </clipPath>
    <linearGradient id="argentinaGradient" x1="0%" y1="0%" x2="100%" y2="100%">
      <stop offset="0%" style="stop-color:#6CACE4;stop-opacity:1" />
      <stop offset="50%" style="stop-color:#FFFFFF;stop-opacity:1" />
      <stop offset="100%" style="stop-color:#6CACE4;stop-opacity:1" />
    </linearGradient>
  </defs>
  <g clip-path="url(#circleView)">
    <!-- Argentina stripes -->
    <rect width="64" height="21" y="0" fill="#6CACE4"/>
    <rect width="64" height="22" y="21" fill="#FFFFFF"/>
    <rect width="64" height="21" y="43" fill="#6CACE4"/>
    
    <!-- Sun of May -->
    <circle cx="32" cy="32" r="12" fill="#FFD700" opacity="0.9"/>
    <circle cx="32" cy="32" r="8" fill="#FFA500" opacity="0.8"/>
    
    <!-- Sun rays -->
    <g stroke="#FFD700" stroke-width="1" opacity="0.7">
      <line x1="32" y1="12" x2="32" y2="20"/>
      <line x1="46" y1="18" x2="42" y2="22"/>
      <line x1="52" y1="32" x2="44" y2="32"/>
      <line x1="46" y1="46" x2="42" y2="42"/>
      <line x1="32" y1="52" x2="32" y2="44"/>
      <line x1="18" y1="46" x2="22" y2="42"/>
      <line x1="12" y1="32" x2="20" y2="32"/>
      <line x1="18" y1="18" x2="22" y2="22"/>
    </g>
    
    <!-- Glossy effect -->
    <ellipse cx="32" cy="20" rx="22" ry="10" fill="white" opacity="0.3"/>
  </g>
</svg>
