
<svg width="64" height="64" viewBox="0 0 64 64" xmlns="http://www.w3.org/2000/svg">
  <defs>
    <clipPath id="circleView">
      <circle cx="32" cy="32" r="32"/>
    </clipPath>
  </defs>
  <g clip-path="url(#circleView)">
    <!-- Blue background -->
    <rect width="64" height="64" fill="#012169"/>
    
    <!-- Union Jack corner -->
    <rect width="24" height="24" x="0" y="0" fill="#012169"/>
    <path d="M 0 0 L 24 12 L 24 0 Z" fill="#FFFFFF"/>
    <path d="M 0 24 L 12 24 L 0 12 Z" fill="#FFFFFF"/>
    <path d="M 24 24 L 0 12 L 0 24 Z" fill="#FFFFFF"/>
    <path d="M 24 0 L 12 0 L 24 12 Z" fill="#FFFFFF"/>
    
    <!-- Red crosses -->
    <rect width="4" height="24" x="10" y="0" fill="#C8102E"/>
    <rect width="24" height="4" x="0" y="10" fill="#C8102E"/>
    
    <!-- Southern Cross stars -->
    <g fill="#FFFFFF">
      <polygon points="45,15 47,19 51,19 48,22 49,26 45,23 41,26 42,22 39,19 43,19" />
      <polygon points="50,35 52,39 56,39 53,42 54,46 50,43 46,46 47,42 44,39 48,39" />
      <polygon points="35,45 37,49 41,49 38,52 39,56 35,53 31,56 32,52 29,49 33,49" />
      <polygon points="25,35 27,39 31,39 28,42 29,46 25,43 21,46 22,42 19,39 23,39" />
      <circle cx="38" cy="25" r="2"/>
    </g>
    
    <!-- Glossy effect -->
    <ellipse cx="32" cy="20" rx="22" ry="10" fill="white" opacity="0.3"/>
  </g>
</svg>
