
<svg width="64" height="64" viewBox="0 0 64 64" xmlns="http://www.w3.org/2000/svg">
  <defs>
    <clipPath id="circleView">
      <circle cx="32" cy="32" r="32"/>
    </clipPath>
    <radialGradient id="glossGradient" cx="0.3" cy="0.3" r="0.7">
      <stop offset="0%" style="stop-color:white;stop-opacity:0.4"/>
      <stop offset="100%" style="stop-color:white;stop-opacity:0"/>
    </radialGradient>
  </defs>
  
  <!-- Background circle with clip -->
  <g clip-path="url(#circleView)">
    <!-- Green background -->
    <rect width="64" height="64" fill="#009B3A"/>
    
    <!-- Yellow diamond -->
    <polygon points="32,8 56,32 32,56 8,32" fill="#FEDF00"/>
    
    <!-- Blue circle -->
    <circle cx="32" cy="32" r="11" fill="#002776"/>
    
    <!-- Stars (simplified representation) -->
    <circle cx="28" cy="28" r="0.5" fill="white"/>
    <circle cx="36" cy="28" r="0.5" fill="white"/>
    <circle cx="32" cy="25" r="0.5" fill="white"/>
    <circle cx="30" cy="32" r="0.5" fill="white"/>
    <circle cx="34" cy="32" r="0.5" fill="white"/>
    <circle cx="32" cy="35" r="0.5" fill="white"/>
    <circle cx="26" cy="32" r="0.5" fill="white"/>
    <circle cx="38" cy="32" r="0.5" fill="white"/>
    <circle cx="29" cy="36" r="0.5" fill="white"/>
    <circle cx="35" cy="36" r="0.5" fill="white"/>
    
    <!-- Banner representation -->
    <rect x="24" y="31" width="16" height="2" fill="#002776" opacity="0.3"/>
  </g>
  
  <!-- Subtle glossy effect -->
  <ellipse cx="32" cy="20" rx="20" ry="8" fill="url(#glossGradient)"/>
  
  <!-- Border for definition -->
  <circle cx="32" cy="32" r="31" fill="none" stroke="#1a1a1a" stroke-width="1" opacity="0.2"/>
</svg>
