
<svg width="64" height="64" viewBox="0 0 64 64" xmlns="http://www.w3.org/2000/svg">
  <defs>
    <clipPath id="circleView">
      <circle cx="32" cy="32" r="32"/>
    </clipPath>
  </defs>
  <g clip-path="url(#circleView)">
    <!-- Canada flag design -->
    <rect width="16" height="64" x="0" fill="#FF0000"/>
    <rect width="32" height="64" x="16" fill="#FFFFFF"/>
    <rect width="16" height="64" x="48" fill="#FF0000"/>
    
    <!-- Maple leaf -->
    <g transform="translate(32,32)">
      <path d="M 0 -12 L -4 -8 L -8 -6 L -6 -2 L -10 2 L -6 4 L -8 8 L -4 6 L 0 12 L 4 6 L 8 8 L 6 4 L 10 2 L 6 -2 L 8 -6 L 4 -8 Z" fill="#FF0000"/>
    </g>
    
    <!-- Maple leaf details -->
    <g transform="translate(32,32)" opacity="0.7">
      <circle cx="0" cy="-4" r="2" fill="#CC0000"/>
      <circle cx="-3" cy="0" r="1" fill="#CC0000"/>
      <circle cx="3" cy="0" r="1" fill="#CC0000"/>
      <circle cx="0" cy="4" r="1" fill="#CC0000"/>
    </g>
    
    <!-- Glossy effect -->
    <ellipse cx="32" cy="20" rx="22" ry="10" fill="white" opacity="0.3"/>
  </g>
</svg>
