
<svg width="64" height="64" viewBox="0 0 64 64" xmlns="http://www.w3.org/2000/svg">
  <defs>
    <clipPath id="circleView">
      <circle cx="32" cy="32" r="32"/>
    </clipPath>
  </defs>
  <g clip-path="url(#circleView)">
    <!-- Croatia flag - Red, White, Blue horizontal stripes -->
    <rect x="0" y="0" width="64" height="21.33" fill="#FF0000"/>
    <rect x="0" y="21.33" width="64" height="21.33" fill="#FFFFFF"/>
    <rect x="0" y="42.66" width="64" height="21.34" fill="#0000FF"/>
    <!-- Simplified coat of arms in center -->
    <circle cx="32" cy="32" r="8" fill="#FFFFFF" stroke="#000" stroke-width="0.5"/>
    <!-- Checkerboard pattern -->
    <rect x="28" y="28" width="2" height="2" fill="#FF0000"/>
    <rect x="30" y="28" width="2" height="2" fill="#FFFFFF"/>
    <rect x="32" y="28" width="2" height="2" fill="#FF0000"/>
    <rect x="34" y="28" width="2" height="2" fill="#FFFFFF"/>
    <rect x="28" y="30" width="2" height="2" fill="#FFFFFF"/>
    <rect x="30" y="30" width="2" height="2" fill="#FF0000"/>
    <rect x="32" y="30" width="2" height="2" fill="#FFFFFF"/>
    <rect x="34" y="30" width="2" height="2" fill="#FF0000"/>
    <rect x="28" y="32" width="2" height="2" fill="#FF0000"/>
    <rect x="30" y="32" width="2" height="2" fill="#FFFFFF"/>
    <rect x="32" y="32" width="2" height="2" fill="#FF0000"/>
    <rect x="34" y="32" width="2" height="2" fill="#FFFFFF"/>
    <rect x="28" y="34" width="2" height="2" fill="#FFFFFF"/>
    <rect x="30" y="34" width="2" height="2" fill="#FF0000"/>
    <rect x="32" y="34" width="2" height="2" fill="#FFFFFF"/>
    <rect x="34" y="34" width="2" height="2" fill="#FF0000"/>
  </g>
  <!-- Glossy effect -->
  <ellipse cx="32" cy="20" rx="22" ry="10" fill="white" opacity="0.2"/>
</svg>
