
<svg width="64" height="64" viewBox="0 0 64 64" xmlns="http://www.w3.org/2000/svg">
  <defs>
    <clipPath id="circleView">
      <circle cx="32" cy="32" r="32"/>
    </clipPath>
  </defs>
  <g clip-path="url(#circleView)">
    <!-- White background -->
    <rect width="64" height="64" fill="#FFFFFF"/>
    
    <!-- Taegeuk circle -->
    <circle cx="32" cy="32" r="12" fill="#003478"/>
    <path d="M 32 20 A 12 12 0 0 1 32 44 A 6 6 0 0 1 32 32 A 6 6 0 0 0 32 20" fill="#CD2E3A"/>
    <circle cx="32" cy="26" r="3" fill="#CD2E3A"/>
    <circle cx="32" cy="38" r="3" fill="#003478"/>
    
    <!-- Trigrams -->
    <g stroke="#000000" stroke-width="2">
      <!-- Upper left -->
      <line x1="16" y1="16" x2="20" y2="16"/>
      <line x1="16" y1="18" x2="20" y2="18"/>
      <line x1="16" y1="20" x2="20" y2="20"/>
      
      <!-- Upper right -->
      <line x1="44" y1="16" x2="48" y2="16"/>
      <line x1="46" y1="18" x2="48" y2="18"/>
      <line x1="44" y1="20" x2="48" y2="20"/>
      
      <!-- Lower left -->
      <line x1="16" y1="44" x2="18" y2="44"/>
      <line x1="16" y1="46" x2="20" y2="46"/>
      <line x1="18" y1="48" x2="20" y2="48"/>
      
      <!-- Lower right -->
      <line x1="44" y1="44" x2="48" y2="44"/>
      <line x1="44" y1="46" x2="46" y2="46"/>
      <line x1="44" y1="48" x2="48" y2="48"/>
    </g>
    
    <!-- Glossy effect -->
    <ellipse cx="32" cy="20" rx="22" ry="10" fill="white" opacity="0.3"/>
  </g>
</svg>
