
<svg width="64" height="64" viewBox="0 0 64 64" xmlns="http://www.w3.org/2000/svg">
  <defs>
    <clipPath id="circleView">
      <circle cx="32" cy="32" r="32"/>
    </clipPath>
  </defs>
  <g clip-path="url(#circleView)">
    <!-- Uruguay stripes -->
    <rect width="64" height="64" fill="#FFFFFF"/>
    <rect width="64" height="7" y="7" fill="#0038A8"/>
    <rect width="64" height="7" y="21" fill="#0038A8"/>
    <rect width="64" height="7" y="35" fill="#0038A8"/>
    <rect width="64" height="7" y="49" fill="#0038A8"/>
    
    <!-- Sun canton -->
    <rect width="22" height="22" x="0" y="0" fill="#FFFFFF"/>
    
    <!-- Sun of May -->
    <circle cx="11" cy="11" r="8" fill="#FCDD09"/>
    <g stroke="#F7B900" stroke-width="0.5" opacity="0.8">
      <line x1="11" y1="3" x2="11" y2="6"/>
      <line x1="17" y1="5" x2="15" y2="7"/>
      <line x1="19" y1="11" x2="16" y2="11"/>
      <line x1="17" y1="17" x2="15" y2="15"/>
      <line x1="11" y1="19" x2="11" y2="16"/>
      <line x1="5" y1="17" x2="7" y2="15"/>
      <line x1="3" y1="11" x2="6" y2="11"/>
      <line x1="5" y1="5" x2="7" y2="7"/>
    </g>
    
    <!-- Glossy effect -->
    <ellipse cx="32" cy="20" rx="22" ry="10" fill="white" opacity="0.3"/>
  </g>
</svg>
