
<svg width="64" height="64" viewBox="0 0 64 64" xmlns="http://www.w3.org/2000/svg">
  <defs>
    <clipPath id="circleView">
      <circle cx="32" cy="32" r="32"/>
    </clipPath>
    <radialGradient id="glossGradient" cx="0.3" cy="0.3" r="0.7">
      <stop offset="0%" style="stop-color:white;stop-opacity:0.4"/>
      <stop offset="100%" style="stop-color:white;stop-opacity:0"/>
    </radialGradient>
  </defs>
  
  <!-- Background circle with clip -->
  <g clip-path="url(#circleView)">
    <!-- Red background -->
    <rect width="64" height="64" fill="#B22234"/>
    
    <!-- White stripes (authentic proportions) -->
    <rect x="0" y="5" width="64" height="4.6" fill="white"/>
    <rect x="0" y="14.2" width="64" height="4.6" fill="white"/>
    <rect x="0" y="23.4" width="64" height="4.6" fill="white"/>
    <rect x="0" y="32.6" width="64" height="4.6" fill="white"/>
    <rect x="0" y="41.8" width="64" height="4.6" fill="white"/>
    <rect x="0" y="51" width="64" height="4.6" fill="white"/>
    
    <!-- Blue canton (authentic proportions) -->
    <rect x="0" y="0" width="25.6" height="33" fill="#3C3B6E"/>
    
    <!-- Stars in authentic pattern -->
    <!-- Row 1: 6 stars -->
    <circle cx="3.2" cy="4" r="1" fill="white"/>
    <circle cx="7.4" cy="4" r="1" fill="white"/>
    <circle cx="11.6" cy="4" r="1" fill="white"/>
    <circle cx="15.8" cy="4" r="1" fill="white"/>
    <circle cx="20" cy="4" r="1" fill="white"/>
    <circle cx="24.2" cy="4" r="1" fill="white"/>
    
    <!-- Row 2: 5 stars -->
    <circle cx="5.3" cy="7.5" r="1" fill="white"/>
    <circle cx="9.5" cy="7.5" r="1" fill="white"/>
    <circle cx="13.7" cy="7.5" r="1" fill="white"/>
    <circle cx="17.9" cy="7.5" r="1" fill="white"/>
    <circle cx="22.1" cy="7.5" r="1" fill="white"/>
    
    <!-- Row 3: 6 stars -->
    <circle cx="3.2" cy="11" r="1" fill="white"/>
    <circle cx="7.4" cy="11" r="1" fill="white"/>
    <circle cx="11.6" cy="11" r="1" fill="white"/>
    <circle cx="15.8" cy="11" r="1" fill="white"/>
    <circle cx="20" cy="11" r="1" fill="white"/>
    <circle cx="24.2" cy="11" r="1" fill="white"/>
    
    <!-- Row 4: 5 stars -->
    <circle cx="5.3" cy="14.5" r="1" fill="white"/>
    <circle cx="9.5" cy="14.5" r="1" fill="white"/>
    <circle cx="13.7" cy="14.5" r="1" fill="white"/>
    <circle cx="17.9" cy="14.5" r="1" fill="white"/>
    <circle cx="22.1" cy="14.5" r="1" fill="white"/>
    
    <!-- Row 5: 6 stars -->
    <circle cx="3.2" cy="18" r="1" fill="white"/>
    <circle cx="7.4" cy="18" r="1" fill="white"/>
    <circle cx="11.6" cy="18" r="1" fill="white"/>
    <circle cx="15.8" cy="18" r="1" fill="white"/>
    <circle cx="20" cy="18" r="1" fill="white"/>
    <circle cx="24.2" cy="18" r="1" fill="white"/>
    
    <!-- Row 6: 5 stars -->
    <circle cx="5.3" cy="21.5" r="1" fill="white"/>
    <circle cx="9.5" cy="21.5" r="1" fill="white"/>
    <circle cx="13.7" cy="21.5" r="1" fill="white"/>
    <circle cx="17.9" cy="21.5" r="1" fill="white"/>
    <circle cx="22.1" cy="21.5" r="1" fill="white"/>
    
    <!-- Row 7: 6 stars -->
    <circle cx="3.2" cy="25" r="1" fill="white"/>
    <circle cx="7.4" cy="25" r="1" fill="white"/>
    <circle cx="11.6" cy="25" r="1" fill="white"/>
    <circle cx="15.8" cy="25" r="1" fill="white"/>
    <circle cx="20" cy="25" r="1" fill="white"/>
    <circle cx="24.2" cy="25" r="1" fill="white"/>
    
    <!-- Row 8: 5 stars -->
    <circle cx="5.3" cy="28.5" r="1" fill="white"/>
    <circle cx="9.5" cy="28.5" r="1" fill="white"/>
    <circle cx="13.7" cy="28.5" r="1" fill="white"/>
    <circle cx="17.9" cy="28.5" r="1" fill="white"/>
    <circle cx="22.1" cy="28.5" r="1" fill="white"/>
    
    <!-- Row 9: 6 stars -->
    <circle cx="3.2" cy="32" r="1" fill="white"/>
    <circle cx="7.4" cy="32" r="1" fill="white"/>
    <circle cx="11.6" cy="32" r="1" fill="white"/>
    <circle cx="15.8" cy="32" r="1" fill="white"/>
    <circle cx="20" cy="32" r="1" fill="white"/>
    <circle cx="24.2" cy="32" r="1" fill="white"/>
  </g>
  
  <!-- Subtle glossy effect -->
  <ellipse cx="32" cy="20" rx="20" ry="8" fill="url(#glossGradient)"/>
  
  <!-- Border for definition -->
  <circle cx="32" cy="32" r="31" fill="none" stroke="#1a1a1a" stroke-width="1" opacity="0.2"/>
</svg>
