
<svg width="64" height="64" viewBox="0 0 64 64" xmlns="http://www.w3.org/2000/svg">
  <defs>
    <clipPath id="circleView">
      <circle cx="32" cy="32" r="32"/>
    </clipPath>
    <radialGradient id="glossGradient" cx="0.3" cy="0.3" r="0.7">
      <stop offset="0%" style="stop-color:white;stop-opacity:0.6"/>
      <stop offset="100%" style="stop-color:white;stop-opacity:0"/>
    </radialGradient>
  </defs>
  
  <!-- Background circle with clip -->
  <g clip-path="url(#circleView)">
    <!-- Red stripes background -->
    <rect width="64" height="64" fill="#B22234"/>
    
    <!-- White stripes -->
    <rect x="0" y="9" width="64" height="4" fill="white"/>
    <rect x="0" y="18" width="64" height="4" fill="white"/>
    <rect x="0" y="27" width="64" height="4" fill="white"/>
    <rect x="0" y="36" width="64" height="4" fill="white"/>
    <rect x="0" y="45" width="64" height="4" fill="white"/>
    <rect x="0" y="54" width="64" height="4" fill="white"/>
    
    <!-- Blue canton -->
    <rect x="0" y="0" width="26" height="32" fill="#3C3B6E"/>
    
    <!-- Stars (simplified) -->
    <circle cx="6" cy="6" r="1" fill="white"/>
    <circle cx="13" cy="6" r="1" fill="white"/>
    <circle cx="20" cy="6" r="1" fill="white"/>
    <circle cx="9" cy="12" r="1" fill="white"/>
    <circle cx="16" cy="12" r="1" fill="white"/>
    <circle cx="6" cy="18" r="1" fill="white"/>
    <circle cx="13" cy="18" r="1" fill="white"/>
    <circle cx="20" cy="18" r="1" fill="white"/>
    <circle cx="9" cy="24" r="1" fill="white"/>
    <circle cx="16" cy="24" r="1" fill="white"/>
  </g>
  
  <!-- Glossy effect -->
  <ellipse cx="32" cy="20" rx="22" ry="10" fill="url(#glossGradient)"/>
  
  <!-- Border for definition -->
  <circle cx="32" cy="32" r="31" fill="none" stroke="#2a2a2a" stroke-width="2" opacity="0.3"/>
</svg>
