<svg width="120" height="120" viewBox="0 0 120 120" fill="none" xmlns="http://www.w3.org/2000/svg">
<g clip-path="url(#clip0_61_7293)">
<mask id="mask0_61_7293" style="mask-type:luminance" maskUnits="userSpaceOnUse" x="0" y="0" width="120" height="120">
<path d="M120 0H0V120H120V0Z" fill="white"></path>
</mask>
<g mask="url(#mask0_61_7293)">
<path d="M95.3681 24.6768C90.7381 20.0163 85.2283 16.3194 79.1578 13.8001C73.0873 11.2808 66.5766 9.9892 60.0028 10.0001C53.4276 9.9898 46.9156 11.2816 40.8436 13.8009C34.7715 16.3201 29.2599 20.0167 24.6276 24.6768C5.12414 44.1493 5.12414 75.8457 24.6276 95.3231C29.26 99.9846 34.7723 103.682 40.8454 106.201C46.9185 108.721 53.4317 110.012 60.0078 110C66.5813 110.011 73.0917 108.721 79.1622 106.202C85.2327 103.684 90.7427 99.9878 95.3731 95.3281C114.876 75.8557 114.876 44.1593 95.3681 24.6768ZM91.2263 84.9775H80.0064L73.7137 97.5461C69.324 99.1658 64.6826 99.9995 60.0028 100.009C55.3144 100 50.6643 99.165 46.2669 97.5412L39.9892 85.0274H28.8094C24.6848 79.9064 21.8954 73.8443 20.6909 67.3833L29.9849 55.0045L23.9022 42.8505C25.8431 38.7271 28.4812 34.9688 31.7006 31.7405C36.2065 27.2248 41.7294 23.8521 47.8076 21.9043L59.9978 30.027L72.1931 21.9093C78.2695 23.8585 83.7917 27.2291 88.3 31.7405C91.5159 34.9649 94.1522 38.718 96.0934 42.8355L90.0108 55.0045L99.3048 67.3833C98.1057 73.8235 95.3305 79.8677 91.2263 84.9775Z" fill="#2194FF"></path>
<path d="M42.4903 55.0045L49.9935 74.9865H70.0021L77.5054 55.0045L59.9978 42.5158L42.4903 55.0045Z" fill="#2194FF"></path>
</g>
</g>
<defs>
<clipPath id="clip0_61_7293">
<rect width="120" height="120" fill="white"></rect>
</clipPath>
</defs>
</svg>
