
<?xml version="1.0" encoding="UTF-8"?>
<svg width="500px" height="500px" viewBox="0 0 500 500" version="1.1" xmlns="http://www.w3.org/2000/svg" xmlns:xlink="http://www.w3.org/1999/xlink">
    <title>facebook</title>
    <g id="facebook" stroke="none" stroke-width="1" fill="none" fill-rule="evenodd">
        <g id="Group" transform="translate(5.000000, 5.000000)">
            <path d="M244.992798,490 C380.294853,490 490,380.320437 490,245 C490,109.708373 380.294853,0 244.992798,0 C109.676338,0 0,109.708373 0,245 C0,380.320437 109.676338,490 244.992798,490" id="Fill-1" fill="#507BBD"></path>
            <path d="M185.209842,203.547308 L210.191993,203.547308 L210.191993,179.080057 C210.191993,168.299578 210.461994,151.649248 218.235166,141.355536 C226.420444,130.446206 237.675201,123.015836 257.029973,123.015836 C288.534767,123.015836 301.821633,127.554232 301.821633,127.554232 L295.583201,164.849251 C295.583201,164.849251 285.152655,161.81411 275.446848,161.81411 C265.726831,161.81411 257.029973,165.321703 257.029973,175.11433 L257.029973,203.547308 L296.876361,203.547308 L294.091093,239.969009 L257.029973,239.969009 L257.029973,366.528692 L210.191993,366.528692 L210.191993,239.969009 L185.209842,239.969009 L185.209842,203.547308 Z" id="Fill-4" fill="#FEFEFE"></path>
        </g>
    </g>
</svg>
