
<svg width="24" height="24" viewBox="0 0 24 24" fill="none" xmlns="http://www.w3.org/2000/svg">
<path d="M19.0736 4.93537C18.1476 4.00326 17.0457 3.26388 15.8316 2.76002C14.6175 2.25616 13.3153 1.99784 12.0006 2.00001C10.6855 1.99796 9.38313 2.25633 8.16871 2.76017C6.9543 3.26402 5.85198 4.00334 4.92551 4.93537C1.02483 8.82986 1.02483 15.1691 4.92551 19.0646C5.852 19.9969 6.95446 20.7364 8.16908 21.2403C9.3837 21.7441 10.6863 22.0023 12.0016 22C13.3163 22.0023 14.6183 21.7441 15.8324 21.2404C17.0465 20.7368 18.1485 19.9976 19.0746 19.0656C22.9753 15.1711 22.9753 8.83185 19.0736 4.93537ZM18.2453 16.9955H16.0013L14.7427 19.5092C13.8648 19.8332 12.9365 19.9999 12.0006 20.0018C11.0629 20.0001 10.1329 19.833 9.25338 19.5082L7.99784 17.0055H5.76187C4.93695 15.9813 4.37909 14.7689 4.13817 13.4767L5.99697 11.0009L4.78045 8.57009C5.16862 7.74542 5.69624 6.99375 6.34012 6.34809C7.2413 5.44497 8.34588 4.77043 9.56151 4.38087L11.9996 6.0054L14.4386 4.38187C15.6539 4.7717 16.7583 5.44582 17.66 6.34809C18.3032 6.99298 18.8304 7.7436 19.2187 8.56709L18.0022 11.0009L19.861 13.4767C19.6211 14.7647 19.0661 15.9735 18.2453 16.9955Z" fill="white"/>
<path d="M8.49805 11.0009L9.9987 14.9973H14.0004L15.5011 11.0009L11.9996 8.50315L8.49805 11.0009Z" fill="white"/>
</svg>
