
<svg width="120" height="120" viewBox="0 0 120 120" fill="none" xmlns="http://www.w3.org/2000/svg">
<path d="M95.368 24.6769C90.738 20.0163 85.2285 16.3194 79.158 13.8001C73.0875 11.2808 66.5765 9.98922 60.003 10.0001C53.4275 9.98982 46.9156 11.2817 40.8435 13.8009C34.7715 16.3201 29.2599 20.0167 24.6276 24.6769C5.12415 44.1493 5.12415 75.8455 24.6276 95.323C29.26 99.9845 34.7723 103.682 40.8454 106.202C46.9185 108.721 53.4315 110.012 60.008 110C66.5815 110.012 73.0915 108.721 79.162 106.202C85.2325 103.684 90.7425 99.988 95.373 95.328C114.877 75.8555 114.877 44.1593 95.368 24.6769ZM91.2265 84.9775H80.0065L73.7135 97.546C69.324 99.166 64.6825 99.9995 60.003 100.009C55.3145 100.001 50.6645 99.165 46.2669 97.541L39.9892 85.0275H28.8093C24.6847 79.9065 21.8954 73.8445 20.6908 67.3835L29.9849 55.0045L23.9022 42.8505C25.8431 38.7271 28.4812 34.9688 31.7006 31.7405C36.2065 27.2249 41.7294 23.8522 47.8075 21.9044L59.998 30.027L72.193 21.9094C78.2695 23.8585 83.7915 27.2291 88.3 31.7405C91.516 34.9649 94.152 38.718 96.0935 42.8355L90.011 55.0045L99.305 67.3835C98.1055 73.8235 95.3305 79.8675 91.2265 84.9775Z" fill="#151E22"/>
<path d="M42.4902 55.0046L49.9935 74.9866H70.002L77.5055 55.0046L59.998 42.5159L42.4902 55.0046Z" fill="#151E22"/>
</svg>
