
<svg width="24" height="24" viewBox="0 0 24 24" fill="none" xmlns="http://www.w3.org/2000/svg">
<path d="M10 13H7.1C7.2 13.6 7.5 14.3 7.9 14.8C8.4 15.6 9.2 16.2 10.1 16.6C10.4 16.7 10.7 16.8 11 16.9C11.7 17 12.4 17 13 16.9C14 16.7 14.8 16.2 15.5 15.5L16.9 16.9C16.3 17.5 15.5 18 14.7 18.4C14.3 18.6 13.8 18.7 13.4 18.8C12.5 19 11.5 19 10.6 18.8C10.1 18.8 9.7 18.6 9.3 18.4C8.1 17.9 7 17 6.2 15.9C5.7 15.1 5.3 14.3 5.1 13.4C5.1 13.3 5.1 13.1 5.1 13H2L6 8.99999L10 13Z" fill="#5BB849"/>
<path d="M14 11H16.9C16.6 9.69999 15.9 8.59999 14.8 7.89999C14.3 7.49999 13.7 7.29999 13 7.09999C12.3 6.99999 11.6 6.99999 11 7.09999C10.4 7.19999 9.8 7.49999 9.2 7.89999C8.9 8.09999 8.7 8.29999 8.5 8.49999L7.1 7.09999C7.7 6.49999 8.5 5.99999 9.3 5.59999C9.7 5.39999 10.2 5.29999 10.6 5.19999C11.5 4.99999 12.5 4.99999 13.4 5.19999C15.2 5.59999 16.8 6.59999 17.8 8.09999C18.3 8.89999 18.7 9.69999 18.9 10.6C18.9 10.7 18.9 10.9 18.9 11H22L18 15L14 11Z" fill="#FF495C"/>
</svg>
