
<svg width="144" height="66" viewBox="0 0 144 66" fill="none" xmlns="http://www.w3.org/2000/svg">
<path d="M3.09668 2.33331L17.7896 15.6666V65" stroke="#868686" stroke-width="0.4" stroke-linecap="square"/>
<path d="M141.21 2.33331L126.517 15.6666V64.9137" stroke="#868686" stroke-width="0.4" stroke-linecap="square"/>
<path d="M126.449 15.6667H17.8584" stroke="#868686" stroke-width="0.4" stroke-linecap="square"/>
<path d="M126.242 27.6667H18.2158" stroke="#868686" stroke-width="0.4" stroke-linecap="square"/>
<path d="M126.242 39.6667H18.2158" stroke="#868686" stroke-width="0.4" stroke-linecap="square"/>
<path d="M126.242 51.6666H18.2158" stroke="#868686" stroke-width="0.4" stroke-linecap="square"/>
<path d="M124.755 1L110.062 15.6667" stroke="#868686" stroke-width="0.4" stroke-linecap="square"/>
<path d="M46.001 1.66669L53.6413 15.6667" stroke="#868686" stroke-width="0.4" stroke-linecap="square"/>
<path d="M72.4473 2.33331V15.6666" stroke="#868686" stroke-width="0.4" stroke-linecap="square"/>
<path d="M98.8955 1.66669L91.2552 15.6667" stroke="#868686" stroke-width="0.4" stroke-linecap="square"/>
<path d="M20.1416 1L34.8345 15.6667" stroke="#868686" stroke-width="0.4" stroke-linecap="square"/>
<path d="M1.33398 21L17.79 27.6667" stroke="#868686" stroke-width="0.4" stroke-linecap="square"/>
<path d="M142.974 21L126.518 27.6667" stroke="#868686" stroke-width="0.4" stroke-linecap="square"/>
<path d="M2.51367 59L17.7894 51.6666" stroke="#868686" stroke-width="0.4" stroke-linecap="square"/>
<path d="M142.384 57L126.518 51.6666" stroke="#868686" stroke-width="0.4" stroke-linecap="square"/>
<path d="M2.51367 41L17.7894 39.6667" stroke="#868686" stroke-width="0.4" stroke-linecap="square"/>
<path d="M126.518 39.6667L142.974 41" stroke="#868686" stroke-width="0.4" stroke-linecap="square"/>
<path d="M34.834 15.6667V65" stroke="#868686" stroke-width="0.4" stroke-linecap="square"/>
<path d="M53.6416 15.6667V65" stroke="#868686" stroke-width="0.4" stroke-linecap="square"/>
<path d="M72.4473 15.6667V65" stroke="#868686" stroke-width="0.4" stroke-linecap="square"/>
<path d="M91.2549 15.6667V65" stroke="#868686" stroke-width="0.4" stroke-linecap="square"/>
<path d="M110.062 15.6667V65" stroke="#868686" stroke-width="0.4" stroke-linecap="square"/>
<path d="M142.972 65V2.33331H1.33301V65" stroke="#505050" stroke-width="2"/>
</svg>
