
<svg width="32" height="32" viewBox="0 0 32 32" fill="none" xmlns="http://www.w3.org/2000/svg">
<mask id="mask0_3829_324" style="mask-type:alpha" maskUnits="userSpaceOnUse" x="1" y="1" width="30" height="30">
<path d="M15.9623 1.07617H1V31H15.9623H30.9246V1.07617H15.9623Z" fill="white"/>
</mask>
<g mask="url(#mask0_3829_324)">
<path fill-rule="evenodd" clip-rule="evenodd" d="M15.9626 31C24.2256 31 30.9245 24.302 30.9245 16.0381C30.9245 7.77596 24.2256 1.07617 15.9626 1.07617C7.69866 1.07617 0.999756 7.77596 0.999756 16.0381C0.999756 24.302 7.69866 31 15.9626 31Z" fill="black"/>
</g>
<g clip-path="url(#clip0_3829_324)">
<path d="M17.3126 14.7714L23.1379 8H21.7575L16.6994 13.8795L12.6595 8H8L14.1091 16.8909L8 23.9918H9.38049L14.722 17.7828L18.9884 23.9918H23.6479L17.3123 14.7714H17.3126ZM15.4219 16.9692L14.8029 16.0839L9.87789 9.03921H11.9982L15.9728 14.7245L16.5918 15.6098L21.7582 22.9998H19.6378L15.4219 16.9696V16.9692Z" fill="white"/>
</g>
<defs>
<clipPath id="clip0_3829_324">
<rect width="15.6479" height="16" fill="white" transform="translate(8 8)"/>
</clipPath>
</defs>
</svg>
